<svg xmlns="http://www.w3.org/2000/svg" width="460.5" height="121.436" viewBox="0 0 460.5 121.436">
  <g id="_2bdigital_logo" data-name="2bdigital_logo" transform="translate(-438.28 -832.711)">
    <path id="Caminho_8" data-name="Caminho 8" d="M60-111.75h8.766v89.131H60V-34.327a26.162,26.162,0,0,1-8.922,9.673,24.193,24.193,0,0,1-13.43,3.663,31.885,31.885,0,0,1-12.773-2.567,33.42,33.42,0,0,1-10.487-7.106A33.42,33.42,0,0,1,7.277-41.152,31.885,31.885,0,0,1,4.71-53.925a32.109,32.109,0,0,1,2.567-12.8,33.321,33.321,0,0,1,7.106-10.519,33.42,33.42,0,0,1,10.487-7.106,31.885,31.885,0,0,1,12.773-2.567,24.193,24.193,0,0,1,13.43,3.663A26.3,26.3,0,0,1,60-73.647ZM37.706-29.506a19.953,19.953,0,0,0,11.52-3.287,21.446,21.446,0,0,0,7.419-8.859,28.679,28.679,0,0,0,2.6-12.272,28.629,28.629,0,0,0-2.63-12.428,21.49,21.49,0,0,0-7.451-8.8,19.982,19.982,0,0,0-11.458-3.256,22.939,22.939,0,0,0-12.084,3.287,24.762,24.762,0,0,0-8.7,8.859,24,24,0,0,0-3.256,12.334,23.605,23.605,0,0,0,3.318,12.366,25.011,25.011,0,0,0,8.8,8.8A22.928,22.928,0,0,0,37.706-29.506ZM84.6-85.23h8.766v62.611H84.6Zm4.445-12.209a5.01,5.01,0,0,1-3.6-1.409,4.693,4.693,0,0,1-1.471-3.538,4.693,4.693,0,0,1,1.471-3.538,5.01,5.01,0,0,1,3.6-1.409,4.933,4.933,0,0,1,3.538,1.409,4.693,4.693,0,0,1,1.471,3.538,4.693,4.693,0,0,1-1.471,3.538A4.933,4.933,0,0,1,89.047-97.439Zm71.69,12.209H169.5V-20.3a25.1,25.1,0,0,1-2.6,11.27A30.531,30.531,0,0,1,159.891.2a33.441,33.441,0,0,1-10.049,6.23,31.243,31.243,0,0,1-11.708,2.254,28.288,28.288,0,0,1-12.585-2.974A34.632,34.632,0,0,1,115-2.208a29.18,29.18,0,0,1-6.355-10.957l8.077-3.694A20.473,20.473,0,0,0,121.2-8.375a24.764,24.764,0,0,0,7.764,6.011,20.408,20.408,0,0,0,9.172,2.223,22.538,22.538,0,0,0,8.359-1.6,25.561,25.561,0,0,0,7.263-4.351,20.966,20.966,0,0,0,5.1-6.418,16.845,16.845,0,0,0,1.878-7.8V-34.139a26.577,26.577,0,0,1-8.8,9.517,22.938,22.938,0,0,1-12.867,3.631,30.172,30.172,0,0,1-12.366-2.567,32.078,32.078,0,0,1-10.174-7.106,33.425,33.425,0,0,1-6.856-10.487A32.934,32.934,0,0,1,107.2-53.925a33.166,33.166,0,0,1,2.473-12.8,33.331,33.331,0,0,1,6.856-10.519,32.078,32.078,0,0,1,10.174-7.106,30.171,30.171,0,0,1,12.366-2.567,23.085,23.085,0,0,1,12.867,3.6,26.167,26.167,0,0,1,8.8,9.548Zm-21.6,55.724a18.809,18.809,0,0,0,11.239-3.381,22.179,22.179,0,0,0,7.294-8.953,28.528,28.528,0,0,0,2.567-12.084,28.471,28.471,0,0,0-2.6-12.24,22.129,22.129,0,0,0-7.357-8.891,18.866,18.866,0,0,0-11.145-3.35,21.377,21.377,0,0,0-11.614,3.287,23.858,23.858,0,0,0-8.3,8.859,25.146,25.146,0,0,0-3.068,12.334,24.574,24.574,0,0,0,3.131,12.3,24.433,24.433,0,0,0,8.359,8.828A21.16,21.16,0,0,0,139.136-29.506ZM183.9-85.23h8.766v62.611H183.9Zm4.445-12.209a5.01,5.01,0,0,1-3.6-1.409,4.693,4.693,0,0,1-1.471-3.538,4.692,4.692,0,0,1,1.471-3.538,5.01,5.01,0,0,1,3.6-1.409,4.933,4.933,0,0,1,3.538,1.409,4.693,4.693,0,0,1,1.471,3.538,4.693,4.693,0,0,1-1.471,3.538A4.933,4.933,0,0,1,188.348-97.439Zm53.908,20.975H227.292l-.063,53.845h-8.766l.063-53.845H207.194V-85.23h11.333l-.063-19.66h8.766l.063,19.66h14.964ZM303.74-85.23h8.766v62.611h-8.828l-.25-11.646a25.234,25.234,0,0,1-8.578,9.611A23.2,23.2,0,0,1,281.7-20.991a32.152,32.152,0,0,1-12.9-2.6,33.772,33.772,0,0,1-10.581-7.169,33.335,33.335,0,0,1-7.138-10.581,32.491,32.491,0,0,1-2.567-12.9,32.415,32.415,0,0,1,2.5-12.71A32.443,32.443,0,0,1,258.034-77.4a33.068,33.068,0,0,1,10.393-7.044,31.619,31.619,0,0,1,12.647-2.536,24.889,24.889,0,0,1,13.712,3.725,27.254,27.254,0,0,1,9.2,9.736ZM281.889-29.506a19.646,19.646,0,0,0,11.552-3.35,21.229,21.229,0,0,0,7.294-8.985,28.211,28.211,0,0,0,2.317-12.4,28.674,28.674,0,0,0-2.943-12.24,22.192,22.192,0,0,0-7.607-8.7,20.164,20.164,0,0,0-11.427-3.224,22.887,22.887,0,0,0-12.178,3.35,24.107,24.107,0,0,0-8.609,8.953,23.8,23.8,0,0,0-2.943,12.491,24.346,24.346,0,0,0,3.663,12.178,25.619,25.619,0,0,0,8.922,8.7A23.263,23.263,0,0,0,281.889-29.506Zm46.9,6.887V-111.75h8.766v89.131Z" transform="translate(560.73 944.961)" fill="#110d2f" stroke="rgba(0,0,0,0)" stroke-width="1"/>
    <path id="Caminho_7" data-name="Caminho 7" d="M6.28-22.658v-16.78q3.506-2.191,8.766-6.1t11.051-8.8q5.792-4.884,10.832-9.924a74.105,74.105,0,0,0,8.233-9.579q3.193-4.539,3.193-7.67a11.335,11.335,0,0,0-1.565-5.854,11.882,11.882,0,0,0-4.164-4.226,11.006,11.006,0,0,0-5.792-1.565,11.17,11.17,0,0,0-5.823,1.565,12.054,12.054,0,0,0-4.226,4.226,11.166,11.166,0,0,0-1.6,5.854H6.405A29.254,29.254,0,0,1,10.6-97.04a31.05,31.05,0,0,1,11.113-10.894,29.638,29.638,0,0,1,15.121-4.007,29.353,29.353,0,0,1,15.214,4.07A30.8,30.8,0,0,1,63.037-96.883a29.578,29.578,0,0,1,4.1,15.371,27.85,27.85,0,0,1-1.127,7.983,33.414,33.414,0,0,1-3.287,7.451A56.5,56.5,0,0,1,57.371-58.6q-3.193,3.819-7.357,8.046t-9.173,9.11H73.519v18.783ZM107.96-87.022a32.1,32.1,0,0,1,16.655,4.445,33.584,33.584,0,0,1,11.959,11.927,31.814,31.814,0,0,1,4.445,16.561,32.334,32.334,0,0,1-2.567,12.835,33.223,33.223,0,0,1-7.106,10.55A33.32,33.32,0,0,1,120.827-23.6,32.266,32.266,0,0,1,107.96-21.03a18.417,18.417,0,0,1-8.891-2.129,25.58,25.58,0,0,1-6.887-5.385v5.885H73.4v-89.131H92.182v32.28a24.506,24.506,0,0,1,6.887-5.416A18.639,18.639,0,0,1,107.96-87.022Zm-.25,47.835a13.044,13.044,0,0,0,7.075-2,14.624,14.624,0,0,0,5.071-5.385,15.207,15.207,0,0,0,1.878-7.513,15.083,15.083,0,0,0-1.878-7.451,14.877,14.877,0,0,0-5.071-5.416,12.9,12.9,0,0,0-7.075-2.035,12.635,12.635,0,0,0-6.981,2.035,14.971,14.971,0,0,0-5.04,5.416,15.083,15.083,0,0,0-1.878,7.451,15.207,15.207,0,0,0,1.878,7.513,14.713,14.713,0,0,0,5.04,5.385A12.78,12.78,0,0,0,107.71-39.187Z" transform="translate(432 945)" fill="#e8335d"/>
  </g>
</svg>
